<svg version="1" xmlns="http://www.w3.org/2000/svg" width="682.667" height="682.667" viewBox="0 0 512.000000 512.000000"><path d="M35.5 1.1C24.6 3.7 12.2 12.9 6.4 22.8c-1.4 2.4-3.5 7.4-4.5 11C.1 40.3 0 47.2 0 256.5c0 231.3-.2 219 4.7 229.5 3.9 8.4 13.1 17.6 21.3 21.3 10.9 4.9.5 4.7 230 4.7 205.7 0 215.9-.1 222.2-1.8 15.2-4.3 26-14.6 31.4-30.2l2.3-6.5V257.2c.1-147.3-.2-217.8-1-221-3.3-14.9-15.9-29-30.3-34C475.8.6 461.8.5 257.5.3 125 .3 37.9.6 35.5 1.1zm249 106.6V143h31.2c22.4 0 31.2.3 31.5 1.1.2.7-.4 5.5-1.3 10.8-.9 5.3-2 11.8-2.3 14.6-.4 2.7-1.1 7.5-1.6 10.5s-1.2 7.3-1.5 9.5c-.5 3.9-1.7 12.3-2.1 13.7-.1.5-.2 1.9-.3 3.3l-.1 2.5h-53.5l.1 69.2c0 52.4.4 70.4 1.3 73.7 1.6 5.8 7.1 14.3 10.7 16.8 8.5 5.7 14.8 6.9 36.6 6.8 15.9 0 16.7.1 17 2 .3 1.6.2 51.5-.1 53.7-.1.3-2.5.9-5.3 1.3-2.9.4-6 .9-6.8 1-11.5 2.1-41.6 3.2-52.3 1.9-8.9-1.1-20.9-4.4-28.7-8-4.1-1.9-7.7-3.8-8-4.2-.3-.5-2.1-1.8-4-3-2-1.1-5.6-4.3-8.1-6.9-14.7-15.6-21.9-33.6-23.4-58.8-.2-2.2-.3-35.8-.4-74.8L213 209h-57.7l-.1-33v-33H213V72l35.8.2 35.7.3v35.2z"/></svg>